<?xml version="1.0" encoding="utf-8"?>
<!-- Generator: Adobe Illustrator 25.4.1, SVG Export Plug-In . SVG Version: 6.00 Build 0)  -->
<svg version="1.1" id="Capa_1" xmlns="http://www.w3.org/2000/svg" xmlns:xlink="http://www.w3.org/1999/xlink" x="0px" y="0px"
	 viewBox="0 0 1200 1200" style="enable-background:new 0 0 1200 1200;" xml:space="preserve">
<style type="text/css">
	.st0{fill:#11213F;}
	.st1{fill:#3ABEFF;}
	.st2{fill:#FFFFFF;}
	.st3{fill:url(#SVGID_1_);}
	.st4{fill:url(#SVGID_00000020394489405856547230000012465924728355705993_);}
</style>
<rect x="-20.53" y="-20.6" class="st0" width="1241.81" height="1241.81"/>
<g>
	<g>
		<path class="st1" d="M201.22,963.06v-26.85h5.56v26.85H201.22z"/>
		<path class="st1" d="M227,963.06v-26.85h5.29l13.31,17.34v-17.34h5.26v26.85h-4.91l-13.7-17.95v17.95H227z"/>
		<path class="st1" d="M271.08,963.06v-26.85h5.29l13.31,17.34v-17.34h5.26v26.85h-4.91l-13.7-17.95v17.95H271.08z"/>
		<path class="st1" d="M328.36,963.49c-1.99,0-3.86-0.35-5.58-1.05c-1.73-0.7-3.24-1.69-4.53-2.95c-1.29-1.27-2.3-2.74-3.03-4.41
			c-0.73-1.67-1.09-3.48-1.09-5.43c0-1.94,0.36-3.75,1.09-5.43c0.73-1.67,1.74-3.15,3.03-4.41c1.29-1.27,2.8-2.25,4.53-2.95
			c1.73-0.7,3.59-1.06,5.58-1.06c1.97,0,3.82,0.35,5.54,1.06c1.73,0.7,3.24,1.69,4.53,2.95s2.3,2.74,3.01,4.41
			c0.72,1.68,1.07,3.49,1.07,5.43c0,1.94-0.36,3.75-1.07,5.43c-0.72,1.68-1.72,3.15-3.01,4.41s-2.8,2.25-4.53,2.95
			S330.33,963.49,328.36,963.49z M328.36,958.38c1.2,0,2.31-0.22,3.34-0.67c1.02-0.45,1.92-1.07,2.69-1.86
			c0.77-0.79,1.37-1.72,1.8-2.78c0.43-1.06,0.65-2.21,0.65-3.43c0-1.28-0.22-2.44-0.65-3.47c-0.43-1.04-1.04-1.95-1.8-2.74
			c-0.77-0.79-1.66-1.41-2.69-1.86c-1.02-0.45-2.12-0.67-3.3-0.67c-1.23,0-2.36,0.22-3.4,0.67c-1.04,0.45-1.94,1.07-2.7,1.86
			c-0.77,0.79-1.37,1.71-1.8,2.74c-0.43,1.04-0.65,2.17-0.65,3.4c0,1.28,0.22,2.45,0.65,3.51c0.43,1.06,1.04,1.99,1.8,2.78
			c0.77,0.79,1.67,1.41,2.7,1.86C326.04,958.16,327.15,958.38,328.36,958.38z"/>
		<path class="st1" d="M368.56,963.06l-10.93-26.85h6.02l8.21,21.18l8.4-21.18h5.75l-11.05,26.85H368.56z"/>
		<path class="st1" d="M396.49,963.06l11.05-26.85h6.45l10.9,26.85h-6.02l-2.72-7.02h-11.12l-2.72,7.02H396.49z M406.73,951.55h7.71
			l-3.8-9.9L406.73,951.55z"/>
		<path class="st1" d="M454.23,963.45c-2,0-3.86-0.35-5.6-1.06s-3.25-1.68-4.55-2.93c-1.29-1.25-2.3-2.72-3.03-4.39
			c-0.73-1.67-1.09-3.48-1.09-5.43c0-1.94,0.36-3.75,1.09-5.43c0.73-1.67,1.75-3.15,3.05-4.41c1.3-1.27,2.82-2.25,4.55-2.95
			c1.73-0.7,3.59-1.06,5.58-1.06c1.48,0,2.92,0.21,4.3,0.61c1.38,0.41,2.67,0.98,3.86,1.73c1.19,0.74,2.21,1.64,3.05,2.69
			l-3.76,3.68c-0.95-1.2-2.06-2.1-3.34-2.7c-1.28-0.6-2.65-0.9-4.1-0.9c-1.2,0-2.33,0.22-3.38,0.67c-1.05,0.45-1.96,1.06-2.72,1.84
			c-0.77,0.78-1.37,1.69-1.8,2.74c-0.43,1.05-0.65,2.21-0.65,3.49c0,1.23,0.22,2.37,0.67,3.43c0.45,1.06,1.06,1.98,1.84,2.76
			c0.78,0.78,1.7,1.39,2.76,1.82c1.06,0.44,2.23,0.65,3.51,0.65c1.41,0,2.72-0.29,3.95-0.88c1.23-0.59,2.3-1.43,3.22-2.53l3.61,3.61
			c-0.84,1.02-1.85,1.91-3.01,2.65s-2.44,1.31-3.82,1.71C457.03,963.25,455.63,963.45,454.23,963.45z"/>
		<path class="st1" d="M483.88,963.06v-26.85h5.56v26.85H483.88z"/>
		<path class="st1" d="M522.86,963.49c-1.99,0-3.86-0.35-5.58-1.05c-1.73-0.7-3.24-1.69-4.53-2.95c-1.29-1.27-2.3-2.74-3.03-4.41
			c-0.73-1.67-1.09-3.48-1.09-5.43c0-1.94,0.36-3.75,1.09-5.43c0.73-1.67,1.74-3.15,3.03-4.41c1.29-1.27,2.8-2.25,4.53-2.95
			c1.73-0.7,3.59-1.06,5.58-1.06c1.97,0,3.82,0.35,5.54,1.06c1.73,0.7,3.24,1.69,4.53,2.95s2.3,2.74,3.01,4.41
			c0.72,1.68,1.07,3.49,1.07,5.43c0,1.94-0.36,3.75-1.07,5.43c-0.72,1.68-1.72,3.15-3.01,4.41s-2.8,2.25-4.53,2.95
			S524.83,963.49,522.86,963.49z M522.86,958.38c1.2,0,2.31-0.22,3.34-0.67c1.02-0.45,1.92-1.07,2.69-1.86
			c0.77-0.79,1.37-1.72,1.8-2.78c0.43-1.06,0.65-2.21,0.65-3.43c0-1.28-0.22-2.44-0.65-3.47c-0.43-1.04-1.04-1.95-1.8-2.74
			c-0.77-0.79-1.66-1.41-2.69-1.86c-1.02-0.45-2.12-0.67-3.3-0.67c-1.23,0-2.36,0.22-3.4,0.67c-1.04,0.45-1.94,1.07-2.7,1.86
			c-0.77,0.79-1.37,1.71-1.8,2.74c-0.43,1.04-0.65,2.17-0.65,3.4c0,1.28,0.22,2.45,0.65,3.51c0.43,1.06,1.04,1.99,1.8,2.78
			c0.77,0.79,1.67,1.41,2.7,1.86C520.54,958.16,521.65,958.38,522.86,958.38z M519.71,932.87l3.41-4.99h6.02l-5.18,4.99H519.71z"/>
		<path class="st1" d="M556.19,963.06v-26.85h5.29l13.31,17.34v-17.34h5.26v26.85h-4.91l-13.7-17.95v17.95H556.19z"/>
		<path class="st1" d="M632.88,963.45c-2.15,0-4.26-0.41-6.33-1.23c-2.07-0.82-3.91-1.96-5.52-3.41l3.18-4.03
			c1.56,1.38,3.06,2.38,4.51,3.01c1.44,0.63,2.97,0.94,4.58,0.94c1.12,0,2.1-0.13,2.92-0.4s1.45-0.66,1.9-1.17
			c0.45-0.51,0.67-1.11,0.67-1.8c0-0.92-0.33-1.64-1-2.15c-0.67-0.51-1.8-0.9-3.42-1.15l-5.33-0.92c-2.28-0.41-4.02-1.22-5.22-2.44
			c-1.2-1.21-1.8-2.79-1.8-4.74c0-1.66,0.43-3.1,1.3-4.32c0.87-1.21,2.09-2.15,3.66-2.8c1.57-0.65,3.45-0.98,5.62-0.98
			c1.94,0,3.91,0.33,5.89,0.98c1.98,0.65,3.71,1.58,5.2,2.78l-2.99,4.1c-2.81-2.15-5.64-3.22-8.48-3.22c-1,0-1.87,0.13-2.61,0.38
			c-0.74,0.26-1.31,0.61-1.71,1.06c-0.4,0.45-0.59,0.97-0.59,1.55c0,0.87,0.3,1.52,0.9,1.96c0.6,0.44,1.58,0.78,2.94,1.04l5.06,0.81
			c2.69,0.44,4.7,1.29,6.04,2.55c1.34,1.27,2.01,2.93,2.01,5.01c0,1.74-0.47,3.25-1.4,4.53c-0.93,1.28-2.25,2.28-3.95,2.99
			C637.22,963.09,635.21,963.45,632.88,963.45z"/>
		<path class="st1" d="M662.88,963.06v-26.85h5.56v26.85H662.88z"/>
		<path class="st1" d="M688.66,963.06v-26.85h5.29l13.31,17.34v-17.34h5.26v26.85h-4.91l-13.7-17.95v17.95H688.66z"/>
		<path class="st1" d="M755.79,963.06v-26.85h5.56v21.94h14.69v4.91H755.79z"/>
		<path class="st1" d="M794.92,932.87l3.41-4.99h6.02l-5.18,4.99H794.92z M795.23,963.06v-26.85h5.56v26.85H795.23z"/>
		<path class="st1" d="M821.01,963.06v-26.85h7.17l7.33,14.5l7.37-14.5h7.1v26.85h-5.22v-19.76l-9.32,17.84l-9.28-17.92v19.83
			H821.01z"/>
		<path class="st1" d="M870.19,963.06v-26.85h5.56v26.85H870.19z"/>
		<path class="st1" d="M903.29,963.06v-21.94h-9.05v-4.91h23.67v4.91h-9.05v21.94H903.29z"/>
		<path class="st1" d="M936.33,963.06v-26.85h20.64v4.83h-15.08v6.14h9.94v4.64h-9.94v6.41h15.23v4.83H936.33z"/>
		<path class="st1" d="M985.97,963.45c-2.15,0-4.26-0.41-6.33-1.23c-2.07-0.82-3.91-1.96-5.52-3.41l3.18-4.03
			c1.56,1.38,3.06,2.38,4.51,3.01c1.44,0.63,2.97,0.94,4.58,0.94c1.12,0,2.1-0.13,2.92-0.4s1.45-0.66,1.9-1.17
			c0.45-0.51,0.67-1.11,0.67-1.8c0-0.92-0.33-1.64-1-2.15c-0.67-0.51-1.8-0.9-3.42-1.15l-5.33-0.92c-2.28-0.41-4.02-1.22-5.22-2.44
			c-1.2-1.21-1.8-2.79-1.8-4.74c0-1.66,0.43-3.1,1.3-4.32c0.87-1.21,2.09-2.15,3.66-2.8c1.57-0.65,3.45-0.98,5.62-0.98
			c1.94,0,3.91,0.33,5.89,0.98c1.98,0.65,3.71,1.58,5.2,2.78l-2.99,4.1c-2.81-2.15-5.64-3.22-8.48-3.22c-1,0-1.87,0.13-2.61,0.38
			c-0.74,0.26-1.31,0.61-1.71,1.06c-0.4,0.45-0.59,0.97-0.59,1.55c0,0.87,0.3,1.52,0.9,1.96c0.6,0.44,1.58,0.78,2.94,1.04l5.06,0.81
			c2.69,0.44,4.7,1.29,6.04,2.55c1.34,1.27,2.01,2.93,2.01,5.01c0,1.74-0.47,3.25-1.4,4.53c-0.93,1.28-2.25,2.28-3.95,2.99
			C990.31,963.09,988.29,963.45,985.97,963.45z"/>
	</g>
	<g>
		<g>
			<path class="st2" d="M275.9,619.86v92.45h-0.84l-53.75-52.29v50.72h-18.2V618.4h0.9l53.64,52.18v-50.72H275.9z"/>
			<path class="st2" d="M309.81,638.01v17.69h31.23v18.14h-31.23v18.7h36.4v18.09h-54.59v-90.54h54.59v17.92H309.81z"/>
			<path class="st2" d="M380.41,663.62l-25.84-43.53h20.89l15.5,27.41l15.45-27.41h20.89l-25.89,43.47l27.58,47.07H408.1
				l-17.19-30.39l-17.13,30.39h-20.89L380.41,663.62z"/>
			<path class="st2" d="M495.32,638.12h-22.24v72.51h-18.25v-72.51h-22.3v-18.03h62.79V638.12z"/>
			<path class="st2" d="M539.23,620.09h18.2v90.54h-18.2V620.09z"/>
			<path class="st2" d="M645.95,619.86v92.45h-0.84l-53.75-52.29v50.72h-18.2V618.4h0.9l53.64,52.18v-50.72H645.95z"/>
			<path class="st2" d="M679.86,638.01v18.25h31.23v18.14h-31.23v36.34h-18.2v-90.88h54.59v18.14H679.86z"/>
			<path class="st2" d="M726.48,620.09h18.2v90.54h-18.2V620.09z"/>
			<path class="st2" d="M833.19,619.86v92.45h-0.84l-53.75-52.29v50.72h-18.2V618.4h0.9l53.64,52.18v-50.72H833.19z"/>
			<path class="st2" d="M848.91,620.09h18.2v90.54h-18.2V620.09z"/>
			<path class="st2" d="M940.12,638.12h-22.24v72.51h-18.25v-72.51h-22.3v-18.03h62.79V638.12z"/>
			<path class="st2" d="M968.54,638.01v17.69h31.23v18.14h-31.23v18.7h36.4v18.09h-54.59v-90.54h54.59v17.92H968.54z"/>
			<path class="st2" d="M479.34,805.46c0,28.42-19.6,44.99-43.19,44.99c-26.68,0-47.69-21.12-47.69-46.96
				c0-25.89,21.12-47.24,47.01-47.24c11.74,0.11,24.26,5.5,33.14,14.15l-10.11,15.11c-7.08-6.91-15.17-10.84-23.25-10.84
				c-14.04,0-28.25,11.91-28.25,28.81c0,15.73,12.25,28.65,29.94,28.65c12.92,0,22.19-6.63,22.8-17.52h-23.42v-16.79h42.58
				C479.18,800.46,479.34,802.99,479.34,805.46z"/>
			<path class="st2" d="M538.2,848.65l-28.81-42.8v42.8h-18.2l-0.06-90.54h29.54c16.91,0,30.78,13.03,30.78,29.32
				c0,11.63-7.02,21.79-16.74,25.22l25.72,36H538.2z M509.33,798.89l11.68,0.06c6.18,0.06,11.68-4.94,11.68-11.4
				s-5.56-11.4-11.68-11.4h-11.68V798.89z"/>
			<path class="st2" d="M565.15,803.5c0-26.01,21.17-47.24,47.07-47.24s47.12,21.23,47.12,47.24c0,25.78-21.23,46.9-47.18,46.9
				C586.33,850.4,565.15,829.28,565.15,803.5z M640.92,803.38c0-15.84-12.92-28.76-28.76-28.76c-15.78,0-28.65,12.92-28.65,28.76
				c0,15.73,12.86,28.59,28.65,28.59C628,831.97,640.92,819.11,640.92,803.38z"/>
			<path class="st2" d="M670.34,815.18v-57.07h18.31v57.01c0,9.89,7.81,17.08,16.57,17.08c8.76,0,16.68-7.25,16.68-17.08v-57.01
				h18.31v57.07c0,20.5-15.67,35.44-34.94,35.44S670.34,835.68,670.34,815.18z"/>
			<path class="st2" d="M755.15,758.11h31.79c17.52,0,31.85,13.76,31.85,30.61c0,16.79-14.32,30.5-31.85,30.5h-13.59v29.43h-18.2
				V758.11z M800.59,788.56c0-6.85-6.12-12.41-13.65-12.41h-13.59v25.05l13.59,0.06C794.46,801.31,800.59,795.58,800.59,788.56z"/>
		</g>
		<g>
			<g>
				<path class="st2" d="M753.17,383.53h-47.21v73.46L521.98,273.02c-18.41-18.41-43.39-28.76-69.43-28.76h0l0.02,143.02h47.19
					v-69.71l183.95,183.95c18.42,18.42,43.4,28.77,69.45,28.77h0V383.53z"/>
			</g>
			<g>
				<linearGradient id="SVGID_1_" gradientUnits="userSpaceOnUse" x1="326.5173" y1="372.9816" x2="914.4648" y2="431.6515">
					<stop  offset="0" style="stop-color:#00EEFF"/>
					<stop  offset="1" style="stop-color:#A266FF"/>
				</linearGradient>
				<path class="st3" d="M513,452.28c-25.27,19.08-57.41,22.16-85.98,8.24c-28.13-13.71-45.23-40.45-45.75-71.53
					c-0.01-0.57-0.01-1.14-0.01-1.7c0-33.57,17.02-63.24,42.89-80.84v-62.18c-19.81,7.58-37.98,19.32-53.43,34.77
					c-28.91,28.91-44.84,67.36-44.84,108.25c0,0.87,0.01,1.75,0.02,2.63c0.45,26.45,8.26,51.78,22.61,73.25
					c13.41,20.07,32.17,36.37,54.25,47.14c22.26,10.85,46.92,15.61,71.3,13.76c26.03-1.97,51.03-11.51,72.32-27.59l52.49-39.63
					l-39.54-39.54L513,452.28z"/>
				
					<linearGradient id="SVGID_00000132783681089325452910000008475691561096637871_" gradientUnits="userSpaceOnUse" x1="288.0218" y1="342.596" x2="875.9693" y2="401.2659">
					<stop  offset="0" style="stop-color:#00EEFF"/>
					<stop  offset="1" style="stop-color:#A266FF"/>
				</linearGradient>
				<path style="fill:url(#SVGID_00000132783681089325452910000008475691561096637871_);" d="M879.78,384.66
					c-0.45-26.45-8.26-51.78-22.61-73.25c-13.41-20.07-32.17-36.37-54.25-47.14c-22.26-10.85-46.92-15.61-71.3-13.76
					c-26.03,1.97-51.03,11.51-72.32,27.59l-52.47,39.62l39.54,39.54l46.31-34.96c25.27-19.08,57.41-22.16,85.98-8.24
					c28.13,13.71,45.23,40.45,45.75,71.53c0.01,0.57,0.01,1.13,0.01,1.7c0,33.56-17.01,63.22-42.86,80.82v62.19
					c19.8-7.58,37.96-19.32,53.4-34.76c28.91-28.91,44.84-67.36,44.84-108.25C879.81,386.41,879.8,385.54,879.78,384.66z"/>
			</g>
		</g>
	</g>
</g>
</svg>
